<mxfile host="app.diagrams.net" modified="2024-07-16T06:41:46.023Z" agent="Mozilla/5.0 (Windows NT 10.0; Win64; x64) AppleWebKit/537.36 (KHTML, like Gecko) Chrome/126.0.0.0 Safari/537.36 Edg/126.0.0.0" etag="h0190_moBSKghL_8VjF7" version="24.6.5" type="device">
  <diagram id="Bom2Y7GCucXXIgJSMt-n" name="Page-2">
    <mxGraphModel dx="1434" dy="827" grid="1" gridSize="10" guides="1" tooltips="1" connect="1" arrows="1" fold="1" page="1" pageScale="1" pageWidth="1100" pageHeight="850" math="0" shadow="0">
      <root>
        <mxCell id="0" />
        <mxCell id="1" parent="0" />
        <mxCell id="Ub_6eM_rhkK4rnrmzPiu-1" value="" style="verticalLabelPosition=bottom;html=1;verticalAlign=top;align=center;strokeColor=default;fillColor=#00BEF2;shape=mxgraph.azure.computer;pointerEvents=1;gradientColor=default;shadow=0;textShadow=0;direction=east;flipH=0;flipV=0;" parent="1" vertex="1">
          <mxGeometry x="40" y="285" width="100" height="100" as="geometry" />
        </mxCell>
        <mxCell id="Ub_6eM_rhkK4rnrmzPiu-2" value="" style="shape=singleArrow;direction=west;whiteSpace=wrap;html=1;gradientColor=default;shadow=0;textShadow=0;flipH=0;flipV=0;strokeColor=default;" parent="1" vertex="1">
          <mxGeometry x="150" y="305" width="100" height="20" as="geometry" />
        </mxCell>
        <mxCell id="Ub_6eM_rhkK4rnrmzPiu-3" value="" style="shape=singleArrow;whiteSpace=wrap;html=1;gradientColor=default;shadow=0;textShadow=0;direction=east;flipH=0;flipV=0;strokeColor=default;" parent="1" vertex="1">
          <mxGeometry x="150" y="325" width="100" height="20" as="geometry" />
        </mxCell>
        <mxCell id="Ub_6eM_rhkK4rnrmzPiu-4" value="Pull" style="rounded=0;whiteSpace=wrap;html=1;arcSize=50;strokeColor=none;strokeWidth=1;fillColor=none;fontColor=#000000;whiteSpace=wrap;align=left;verticalAlign=middle;spacingLeft=0;fontStyle=1;fontSize=14;spacing=10;textShadow=0;labelBorderColor=none;shadow=0;direction=east;flipH=0;flipV=0;" parent="1" vertex="1">
          <mxGeometry x="175" y="285" width="40" height="20" as="geometry" />
        </mxCell>
        <mxCell id="Ub_6eM_rhkK4rnrmzPiu-5" value="Push" style="rounded=0;whiteSpace=wrap;html=1;arcSize=50;strokeColor=none;strokeWidth=1;fillColor=none;fontColor=#000000;whiteSpace=wrap;align=left;verticalAlign=middle;spacingLeft=0;fontStyle=1;fontSize=14;spacing=10;textShadow=0;shadow=0;direction=east;flipH=0;flipV=0;" parent="1" vertex="1">
          <mxGeometry x="170" y="345" width="50" height="20" as="geometry" />
        </mxCell>
        <mxCell id="YZ31xkfmWvyY0ZkBBPFm-4" style="edgeStyle=orthogonalEdgeStyle;rounded=0;orthogonalLoop=1;jettySize=auto;html=1;exitX=1;exitY=0.25;exitDx=0;exitDy=0;entryX=0.5;entryY=1;entryDx=0;entryDy=0;" parent="1" source="Ub_6eM_rhkK4rnrmzPiu-6" target="P1D1vN6JfQfnxF3JzwK7-5" edge="1">
          <mxGeometry relative="1" as="geometry" />
        </mxCell>
        <mxCell id="Ub_6eM_rhkK4rnrmzPiu-6" value="" style="shape=ext;double=1;rounded=1;whiteSpace=wrap;html=1;shadow=0;textShadow=0;direction=east;flipH=0;flipV=0;strokeColor=default;" parent="1" vertex="1">
          <mxGeometry x="500" y="290" width="120" height="80" as="geometry" />
        </mxCell>
        <mxCell id="Ub_6eM_rhkK4rnrmzPiu-7" value="" style="image;aspect=fixed;html=1;points=[];align=right;fontSize=12;image=img/lib/azure2/general/Branch.svg;shadow=0;textShadow=0;labelPosition=left;verticalLabelPosition=top;verticalAlign=bottom;direction=east;flipH=0;flipV=0;strokeColor=default;" parent="1" vertex="1">
          <mxGeometry x="490" y="280" width="30" height="30" as="geometry" />
        </mxCell>
        <mxCell id="Ub_6eM_rhkK4rnrmzPiu-8" value="" style="verticalLabelPosition=middle;html=1;verticalAlign=middle;align=center;strokeColor=default;fillColor=#00BEF2;shape=mxgraph.azure.git_repository;shadow=0;textShadow=0;labelPosition=center;direction=east;flipH=0;flipV=0;" parent="1" vertex="1">
          <mxGeometry x="530" y="300" width="50" height="50" as="geometry" />
        </mxCell>
        <mxCell id="Ub_6eM_rhkK4rnrmzPiu-9" value="" style="shape=ext;double=1;rounded=1;whiteSpace=wrap;html=1;shadow=0;labelBorderColor=none;textShadow=0;flipH=0;glass=0;direction=east;flipV=0;strokeColor=default;" parent="1" vertex="1">
          <mxGeometry x="260" y="290" width="120" height="80" as="geometry" />
        </mxCell>
        <mxCell id="Ub_6eM_rhkK4rnrmzPiu-10" value="" style="image;aspect=fixed;html=1;points=[];align=right;fontSize=12;image=img/lib/azure2/general/Branch.svg;shadow=0;labelBorderColor=none;textShadow=0;flipH=0;labelPosition=left;verticalLabelPosition=top;verticalAlign=bottom;direction=east;flipV=0;strokeColor=default;" parent="1" vertex="1">
          <mxGeometry x="250" y="280" width="30" height="30" as="geometry" />
        </mxCell>
        <mxCell id="Ub_6eM_rhkK4rnrmzPiu-11" value="" style="verticalLabelPosition=middle;html=1;verticalAlign=middle;align=center;strokeColor=default;fillColor=#00BEF2;shape=mxgraph.azure.git_repository;shadow=0;labelBorderColor=none;textShadow=0;flipH=0;labelPosition=center;direction=east;flipV=0;" parent="1" vertex="1">
          <mxGeometry x="290" y="300" width="50" height="50" as="geometry" />
        </mxCell>
        <mxCell id="Ub_6eM_rhkK4rnrmzPiu-13" value="" style="shape=singleArrow;direction=west;whiteSpace=wrap;html=1;gradientColor=default;shadow=0;textShadow=0;flipH=0;flipV=0;strokeColor=default;" parent="1" vertex="1">
          <mxGeometry x="390" y="305" width="100" height="20" as="geometry" />
        </mxCell>
        <mxCell id="Ub_6eM_rhkK4rnrmzPiu-14" value="" style="shape=singleArrow;whiteSpace=wrap;html=1;gradientColor=default;shadow=0;textShadow=0;direction=east;flipH=0;flipV=0;strokeColor=default;" parent="1" vertex="1">
          <mxGeometry x="390" y="325" width="100" height="20" as="geometry" />
        </mxCell>
        <mxCell id="Ub_6eM_rhkK4rnrmzPiu-15" value="Branch" style="rounded=0;whiteSpace=wrap;html=1;arcSize=50;strokeColor=none;strokeWidth=1;fillColor=none;fontColor=#000000;whiteSpace=wrap;align=left;verticalAlign=middle;spacingLeft=0;fontStyle=1;fontSize=14;spacing=10;textShadow=0;labelBorderColor=none;shadow=0;direction=east;flipH=0;flipV=0;" parent="1" vertex="1">
          <mxGeometry x="405" y="285" width="70" height="20" as="geometry" />
        </mxCell>
        <mxCell id="Ub_6eM_rhkK4rnrmzPiu-16" value="Merge" style="rounded=0;whiteSpace=wrap;html=1;arcSize=50;strokeColor=none;strokeWidth=1;fillColor=none;fontColor=#000000;whiteSpace=wrap;align=left;verticalAlign=middle;spacingLeft=0;fontStyle=1;fontSize=14;spacing=10;textShadow=0;shadow=0;direction=east;flipH=0;flipV=0;" parent="1" vertex="1">
          <mxGeometry x="410" y="345" width="60" height="20" as="geometry" />
        </mxCell>
        <mxCell id="Ub_6eM_rhkK4rnrmzPiu-17" value="Feature" style="rounded=0;whiteSpace=wrap;html=1;arcSize=50;strokeColor=none;strokeWidth=1;fillColor=none;fontColor=#000000;whiteSpace=wrap;align=left;verticalAlign=middle;spacingLeft=0;fontStyle=1;fontSize=14;spacing=10;textShadow=0;shadow=0;direction=east;flipH=0;flipV=0;" parent="1" vertex="1">
          <mxGeometry x="290" y="385" width="60" height="20" as="geometry" />
        </mxCell>
        <mxCell id="Ub_6eM_rhkK4rnrmzPiu-18" value="Main" style="rounded=0;whiteSpace=wrap;html=1;arcSize=50;strokeColor=none;strokeWidth=1;fillColor=none;fontColor=#000000;whiteSpace=wrap;align=left;verticalAlign=middle;spacingLeft=0;fontStyle=1;fontSize=14;spacing=10;textShadow=0;shadow=0;direction=east;flipH=0;flipV=0;" parent="1" vertex="1">
          <mxGeometry x="530" y="385" width="100" height="20" as="geometry" />
        </mxCell>
        <mxCell id="oDvuOgoTyZ9iSBKpnRsw-1" value="Sync" style="rounded=0;whiteSpace=wrap;html=1;arcSize=50;strokeColor=none;strokeWidth=1;fillColor=none;fontColor=#000000;whiteSpace=wrap;align=left;verticalAlign=middle;spacingLeft=0;fontStyle=1;fontSize=14;spacing=10;textShadow=0;labelBorderColor=none;shadow=0;direction=east;flipH=0;flipV=0;glass=0;" parent="1" vertex="1">
          <mxGeometry x="258.5" y="240" width="60" height="20" as="geometry" />
        </mxCell>
        <mxCell id="oDvuOgoTyZ9iSBKpnRsw-2" value="" style="shape=doubleArrow;direction=south;whiteSpace=wrap;html=1;gradientColor=default;shadow=0;textShadow=0;flipH=0;flipV=0;strokeColor=default;" parent="1" vertex="1">
          <mxGeometry x="310" y="220" width="20" height="60" as="geometry" />
        </mxCell>
        <mxCell id="oDvuOgoTyZ9iSBKpnRsw-3" value="" style="shape=ext;double=1;rounded=1;whiteSpace=wrap;html=1;shadow=0;labelBorderColor=none;textShadow=0;flipH=0;glass=0;direction=east;flipV=0;strokeColor=#36393d;fillColor=#eeeeee;" parent="1" vertex="1">
          <mxGeometry x="258.5" y="60" width="120" height="150" as="geometry" />
        </mxCell>
        <mxCell id="oDvuOgoTyZ9iSBKpnRsw-4" value="" style="shape=image;verticalLabelPosition=bottom;verticalAlign=top;imageAspect=0;image=https://www.brasoftware.com.br/Marketing/Microsoft/2023/ebook/fabric/img/icon-microsoft-fabric.png;shadow=0;textShadow=1;" parent="1" vertex="1">
          <mxGeometry x="208.5" y="40" width="75" height="75" as="geometry" />
        </mxCell>
        <mxCell id="oDvuOgoTyZ9iSBKpnRsw-5" value="" style="image;aspect=fixed;html=1;points=[];align=center;fontSize=12;image=img/lib/azure2/compute/Workspaces.svg;shadow=0;textShadow=0;" parent="1" vertex="1">
          <mxGeometry x="286" y="107" width="65" height="56.00000000000001" as="geometry" />
        </mxCell>
        <mxCell id="oDvuOgoTyZ9iSBKpnRsw-6" value="Feature Workspaces" style="rounded=1;whiteSpace=wrap;html=1;arcSize=50;strokeColor=none;strokeWidth=1;fillColor=none;fontColor=#000000;whiteSpace=wrap;align=left;verticalAlign=middle;spacingLeft=0;fontStyle=1;fontSize=10;spacing=10;textShadow=0;shadow=0;direction=east;flipH=0;flipV=0;" parent="1" vertex="1">
          <mxGeometry x="260" y="163" width="120" height="27" as="geometry" />
        </mxCell>
        <mxCell id="P1D1vN6JfQfnxF3JzwK7-1" value="" style="shape=ext;double=1;rounded=1;whiteSpace=wrap;html=1;shadow=0;labelBorderColor=none;textShadow=0;flipH=0;glass=0;direction=east;flipV=0;strokeColor=#36393d;fillColor=#eeeeee;" parent="1" vertex="1">
          <mxGeometry x="485" y="60" width="120" height="150" as="geometry" />
        </mxCell>
        <mxCell id="P1D1vN6JfQfnxF3JzwK7-2" value="" style="shape=image;verticalLabelPosition=bottom;verticalAlign=top;imageAspect=0;image=https://www.brasoftware.com.br/Marketing/Microsoft/2023/ebook/fabric/img/icon-microsoft-fabric.png;shadow=0;textShadow=1;" parent="1" vertex="1">
          <mxGeometry x="435" y="40" width="75" height="75" as="geometry" />
        </mxCell>
        <mxCell id="P1D1vN6JfQfnxF3JzwK7-3" value="" style="image;aspect=fixed;html=1;points=[];align=center;fontSize=12;image=img/lib/azure2/compute/Workspaces.svg;shadow=0;textShadow=0;" parent="1" vertex="1">
          <mxGeometry x="512.5" y="107" width="65" height="56.00000000000001" as="geometry" />
        </mxCell>
        <mxCell id="P1D1vN6JfQfnxF3JzwK7-4" value="Dev Workspace" style="rounded=1;whiteSpace=wrap;html=1;arcSize=50;strokeColor=none;strokeWidth=1;fillColor=none;fontColor=#000000;whiteSpace=wrap;align=left;verticalAlign=middle;spacingLeft=0;fontStyle=1;fontSize=10;spacing=10;textShadow=0;shadow=0;direction=east;flipH=0;flipV=0;" parent="1" vertex="1">
          <mxGeometry x="495" y="163" width="110" height="27" as="geometry" />
        </mxCell>
        <mxCell id="P1D1vN6JfQfnxF3JzwK7-5" value="" style="shape=ext;double=1;rounded=1;whiteSpace=wrap;html=1;shadow=0;labelBorderColor=none;textShadow=0;flipH=0;glass=0;direction=east;flipV=0;strokeColor=#36393d;fillColor=#eeeeee;" parent="1" vertex="1">
          <mxGeometry x="640" y="60" width="120" height="150" as="geometry" />
        </mxCell>
        <mxCell id="P1D1vN6JfQfnxF3JzwK7-6" value="" style="image;aspect=fixed;html=1;points=[];align=center;fontSize=12;image=img/lib/azure2/compute/Workspaces.svg;shadow=0;textShadow=0;" parent="1" vertex="1">
          <mxGeometry x="667.5" y="107" width="65" height="56.00000000000001" as="geometry" />
        </mxCell>
        <mxCell id="P1D1vN6JfQfnxF3JzwK7-7" value="Test Workspace" style="rounded=1;whiteSpace=wrap;html=1;arcSize=50;strokeColor=none;strokeWidth=1;fillColor=none;fontColor=#000000;whiteSpace=wrap;align=left;verticalAlign=middle;spacingLeft=0;fontStyle=1;fontSize=10;spacing=10;textShadow=0;shadow=0;direction=east;flipH=0;flipV=0;" parent="1" vertex="1">
          <mxGeometry x="653" y="163" width="97" height="27" as="geometry" />
        </mxCell>
        <mxCell id="P1D1vN6JfQfnxF3JzwK7-8" value="" style="shape=ext;double=1;rounded=1;whiteSpace=wrap;html=1;shadow=0;labelBorderColor=none;textShadow=1;flipH=0;glass=0;direction=east;flipV=0;strokeColor=#36393d;fillColor=#eeeeee;" parent="1" vertex="1">
          <mxGeometry x="800" y="60" width="118" height="150" as="geometry" />
        </mxCell>
        <mxCell id="P1D1vN6JfQfnxF3JzwK7-9" value="" style="image;aspect=fixed;html=1;points=[];align=center;fontSize=12;image=img/lib/azure2/compute/Workspaces.svg;shadow=0;textShadow=0;" parent="1" vertex="1">
          <mxGeometry x="826.5" y="107" width="65" height="56.00000000000001" as="geometry" />
        </mxCell>
        <mxCell id="P1D1vN6JfQfnxF3JzwK7-10" value="Prod Workspace" style="rounded=1;whiteSpace=wrap;html=1;arcSize=50;strokeColor=none;strokeWidth=1;fillColor=none;fontColor=#000000;whiteSpace=wrap;align=left;verticalAlign=middle;spacingLeft=0;fontStyle=1;fontSize=10;spacing=10;textShadow=0;shadow=0;direction=east;flipH=0;flipV=0;" parent="1" vertex="1">
          <mxGeometry x="811" y="163" width="97" height="27" as="geometry" />
        </mxCell>
        <mxCell id="YZ31xkfmWvyY0ZkBBPFm-1" value="" style="image;sketch=0;aspect=fixed;html=1;points=[];align=center;fontSize=12;image=img/lib/mscae/Azure_Pipelines.svg;shadow=0;textShadow=0;direction=east;flipH=0;flipV=0;strokeColor=default;" parent="1" vertex="1">
          <mxGeometry x="710" y="320" width="50" height="50" as="geometry" />
        </mxCell>
        <mxCell id="YZ31xkfmWvyY0ZkBBPFm-5" style="edgeStyle=orthogonalEdgeStyle;rounded=0;orthogonalLoop=1;jettySize=auto;html=1;exitX=1;exitY=0.25;exitDx=0;exitDy=0;entryX=0.593;entryY=1.013;entryDx=0;entryDy=0;entryPerimeter=0;" parent="1" source="Ub_6eM_rhkK4rnrmzPiu-6" target="P1D1vN6JfQfnxF3JzwK7-8" edge="1">
          <mxGeometry relative="1" as="geometry" />
        </mxCell>
        <mxCell id="YZ31xkfmWvyY0ZkBBPFm-15" style="edgeStyle=orthogonalEdgeStyle;rounded=0;orthogonalLoop=1;jettySize=auto;html=1;exitX=1;exitY=0.25;exitDx=0;exitDy=0;entryX=0.917;entryY=0.98;entryDx=0;entryDy=0;entryPerimeter=0;" parent="1" source="Ub_6eM_rhkK4rnrmzPiu-6" target="P1D1vN6JfQfnxF3JzwK7-1" edge="1">
          <mxGeometry relative="1" as="geometry" />
        </mxCell>
        <mxCell id="YZ31xkfmWvyY0ZkBBPFm-16" value="Build and Release pipeline" style="rounded=0;whiteSpace=wrap;html=1;arcSize=50;strokeColor=none;strokeWidth=1;fillColor=none;fontColor=#000000;whiteSpace=wrap;align=left;verticalAlign=middle;spacingLeft=0;fontStyle=1;fontSize=14;spacing=10;textShadow=0;shadow=0;direction=east;flipH=0;flipV=0;" parent="1" vertex="1">
          <mxGeometry x="760" y="320" width="100" height="55" as="geometry" />
        </mxCell>
      </root>
    </mxGraphModel>
  </diagram>
</mxfile>
